<?xml version="1.0" encoding="utf-8"?>
<!-- Generator: Adobe Illustrator 23.0.1, SVG Export Plug-In . SVG Version: 6.00 Build 0)  -->
<svg version="1.1" id="Livello_1" xmlns="http://www.w3.org/2000/svg" xmlns:xlink="http://www.w3.org/1999/xlink" x="0px" y="0px"
	 viewBox="0 0 138 69" style="enable-background:new 0 0 138 69;" xml:space="preserve">
<style type="text/css">
	.st0{fill:#FFFFFF;}
	.st1{fill:#999999;}
	.st2{fill:#FCEE21;}
</style>
<path class="st0" d="M46.8,60.3l-1.3-7l-3,2.2c-2.4-2.2-5.3-5.4-6-7.7c-1.6-5.3-1-20.8-1-20.8l-8.2,0.1c0,0-0.4,16.5,1.1,22.1
	c1,3.5,6.3,8.9,8.2,10.8l-3.4,2.5l7.4,2.5l7.4,2.5L46.8,60.3z"/>
<g>
	<path class="st1" d="M32,18.7c-0.5,0-0.9-0.1-1.3-0.2c-0.4-0.1-0.8-0.3-1.1-0.6s-0.5-0.6-0.7-1c-0.2-0.4-0.3-0.9-0.3-1.5V8.3h-1.6
		V6.6h1.6V3.1h1.8v3.5h3.7v1.6h-3.7v6.8c0,0.7,0.2,1.2,0.5,1.5c0.4,0.3,0.8,0.4,1.4,0.4c0.3,0,0.6,0,0.9-0.1s0.5-0.2,0.9-0.3v1.5
		c-0.3,0.2-0.6,0.3-1,0.4C32.8,18.6,32.5,18.7,32,18.7z"/>
	<path class="st1" d="M37.3,6.6h1.8v3.1c0.2-0.5,0.5-0.9,0.8-1.3c0.3-0.4,0.7-0.8,1.1-1.1s0.9-0.5,1.4-0.7c0.4-0.1,0.9-0.2,1.4-0.2
		c0.1,0,0.1,0,0.2,0v1.9h-0.1c-0.6,0-1.3,0.1-1.8,0.3c-0.6,0.2-1.1,0.6-1.5,1c-0.4,0.5-0.8,1-1,1.7c-0.2,0.7-0.4,1.5-0.4,2.3v4.7
		h-1.8V6.6z"/>
	<path class="st1" d="M50.2,18.7c-0.6,0-1.1-0.1-1.6-0.2s-1-0.4-1.4-0.7s-0.7-0.7-1-1.2c-0.3-0.5-0.4-1-0.4-1.6v0
		c0-0.6,0.1-1.2,0.4-1.7c0.2-0.5,0.6-0.9,1-1.2c0.5-0.3,1-0.6,1.6-0.7c0.6-0.2,1.3-0.3,2.1-0.3c0.8,0,1.4,0,2,0.1
		c0.6,0.1,1.1,0.2,1.6,0.4v-0.4c0-1-0.3-1.8-0.9-2.4c-0.6-0.5-1.5-0.8-2.6-0.8c-0.7,0-1.3,0.1-1.9,0.2c-0.6,0.2-1.1,0.4-1.7,0.6
		l-0.5-1.4c0.7-0.3,1.3-0.6,2-0.8c0.7-0.2,1.4-0.3,2.3-0.3c1.7,0,3,0.4,3.9,1.3c0.8,0.8,1.3,2,1.3,3.5v7.2h-1.8v-1.8
		c-0.4,0.5-1,1-1.7,1.4S51.2,18.7,50.2,18.7z M50.5,17.3c0.5,0,1.1-0.1,1.5-0.2c0.5-0.2,0.9-0.4,1.2-0.7c0.4-0.3,0.6-0.6,0.8-1
		c0.2-0.4,0.3-0.8,0.3-1.3V13c-0.4-0.1-0.9-0.2-1.5-0.3c-0.6-0.1-1.2-0.2-1.9-0.2c-1.1,0-1.9,0.2-2.6,0.7c-0.6,0.4-0.9,1-0.9,1.7v0
		c0,0.4,0.1,0.7,0.2,1c0.2,0.3,0.4,0.5,0.7,0.7s0.6,0.4,0.9,0.5C49.7,17.2,50.1,17.3,50.5,17.3z"/>
	<path class="st1" d="M64.9,18.7c-0.7,0-1.4-0.1-2.1-0.4c-0.7-0.3-1.3-0.7-1.8-1.2c-0.5-0.5-1-1.2-1.3-1.9s-0.5-1.6-0.5-2.6v0
		c0-1,0.2-1.8,0.5-2.6C60,9.2,60.5,8.5,61,8c0.5-0.5,1.1-0.9,1.8-1.2c0.7-0.3,1.4-0.4,2.1-0.4c0.6,0,1.1,0.1,1.5,0.2
		s0.9,0.3,1.2,0.6c0.4,0.2,0.7,0.5,1,0.8s0.6,0.6,0.8,1V1.7h1.8v16.7h-1.8V16c-0.2,0.4-0.5,0.7-0.8,1s-0.6,0.6-1,0.9
		c-0.4,0.2-0.8,0.4-1.2,0.6C65.9,18.6,65.4,18.7,64.9,18.7z M65.2,17c0.6,0,1.1-0.1,1.6-0.3c0.5-0.2,1-0.5,1.4-0.9
		c0.4-0.4,0.7-0.9,1-1.4s0.4-1.2,0.4-1.8v0c0-0.7-0.1-1.3-0.4-1.8s-0.6-1-1-1.4c-0.4-0.4-0.9-0.7-1.4-0.9c-0.5-0.2-1-0.3-1.6-0.3
		c-0.6,0-1.1,0.1-1.6,0.3c-0.5,0.2-0.9,0.5-1.3,0.9s-0.7,0.9-0.9,1.4c-0.2,0.6-0.3,1.2-0.3,1.9v0c0,0.7,0.1,1.3,0.3,1.9
		c0.2,0.6,0.5,1,0.9,1.4c0.4,0.4,0.8,0.7,1.3,0.9C64.1,16.9,64.6,17,65.2,17z"/>
	<path class="st1" d="M75.2,2.1h2.1V4h-2.1V2.1z M75.3,6.6h1.8v11.8h-1.8V6.6z"/>
	<path class="st1" d="M81.2,6.6H83v2.1c0.4-0.7,0.9-1.2,1.6-1.7c0.6-0.5,1.5-0.7,2.5-0.7c0.7,0,1.4,0.1,1.9,0.3c0.6,0.2,1,0.6,1.4,1
		c0.4,0.4,0.7,0.9,0.9,1.5c0.2,0.6,0.3,1.2,0.3,1.9v7.3h-1.8v-6.9c0-1.1-0.3-2-0.8-2.6s-1.4-1-2.4-1c-0.5,0-1,0.1-1.4,0.3
		C84.7,8.4,84.3,8.7,84,9c-0.3,0.3-0.6,0.7-0.7,1.2c-0.2,0.5-0.3,1-0.3,1.5v6.7h-1.8V6.6z"/>
	<path class="st1" d="M100.6,22.2c-1,0-1.9-0.1-2.8-0.4c-0.9-0.3-1.8-0.7-2.5-1.3l0.8-1.3c0.7,0.5,1.4,0.8,2.2,1
		c0.7,0.2,1.6,0.4,2.4,0.4c1.3,0,2.4-0.3,3.1-1c0.8-0.7,1.2-1.7,1.2-3.1V15c-0.5,0.7-1.2,1.3-1.9,1.8s-1.7,0.8-2.8,0.8
		c-0.7,0-1.4-0.1-2.1-0.4c-0.7-0.3-1.3-0.6-1.8-1.1c-0.5-0.5-0.9-1.1-1.3-1.8s-0.5-1.5-0.5-2.3v0c0-0.9,0.2-1.7,0.5-2.4
		c0.3-0.7,0.7-1.3,1.3-1.8c0.5-0.5,1.1-0.9,1.8-1.1c0.7-0.3,1.4-0.4,2.1-0.4c0.6,0,1.1,0.1,1.5,0.2c0.5,0.1,0.9,0.3,1.3,0.5
		c0.4,0.2,0.7,0.5,1,0.8c0.3,0.3,0.6,0.6,0.8,0.9V6.6h1.8v9.8c0,0.9-0.1,1.7-0.4,2.4s-0.6,1.3-1.1,1.8c-0.5,0.5-1.2,0.9-2,1.2
		S101.5,22.2,100.6,22.2z M100.6,16c0.6,0,1.1-0.1,1.6-0.3c0.5-0.2,1-0.5,1.4-0.8c0.4-0.4,0.7-0.8,1-1.3c0.2-0.5,0.4-1,0.4-1.6v0
		c0-0.6-0.1-1.1-0.4-1.6c-0.2-0.5-0.6-0.9-1-1.2s-0.9-0.6-1.4-0.8S101.1,8,100.6,8S99.5,8.1,99,8.3S98,8.7,97.7,9.1
		c-0.4,0.3-0.7,0.8-0.9,1.2c-0.2,0.5-0.3,1-0.3,1.6v0c0,0.6,0.1,1.1,0.3,1.6c0.2,0.5,0.5,0.9,0.9,1.3s0.8,0.6,1.3,0.8
		C99.5,15.9,100,16,100.6,16z"/>
</g>
<path class="st0" d="M1.5,27.1h8.1l3,9.3l3-9.3h8l-7.6,18.8H9.1L1.5,27.1z"/>
<path class="st0" d="M40.9,27.1h7.8v3.8c0.5-1.2,1.2-2.3,2.2-3c0.8-0.7,2-1,3.3-1c0.1,0,0.2,0,0.4,0v8.2h-0.8
	c-1.6,0-2.9,0.5-3.7,1.4c-0.9,0.9-1.3,2.5-1.3,4.5v4.7h-7.8V27.1z"/>
<path class="st0" d="M67.8,46.2c-2.3,0-4.1-0.5-5.3-1.5c-1.2-1-1.8-2.6-1.8-4.8v-6.1h-2.2v-6.5h2.2V23h7.8v4.1h4.3v6.5h-4.3v4.2
	c0,0.6,0.2,1.1,0.5,1.3c0.3,0.3,0.8,0.4,1.4,0.4c0.7,0,1.5-0.2,2.4-0.5v6c-0.6,0.3-1.4,0.6-2.2,0.8C69.7,46.1,68.7,46.2,67.8,46.2z"
	/>
<path class="st0" d="M84.2,46.2c-2,0-3.5-0.6-4.7-1.8c-1.1-1.2-1.7-2.9-1.7-5V27.1h7.8v9.9c0,0.8,0.2,1.4,0.6,1.9
	c0.4,0.5,0.9,0.7,1.5,0.7c0.6,0,1.1-0.2,1.6-0.7c0.4-0.5,0.7-1.1,0.7-1.9v-9.9h7.8v18.6H90v-2.4c-0.6,0.8-1.4,1.4-2.3,2
	C86.7,45.9,85.6,46.2,84.2,46.2z"/>
<path class="st0" d="M108.9,46.2c-0.9,0-1.7-0.1-2.5-0.4c-0.8-0.3-1.4-0.6-1.9-1.1c-0.5-0.5-1-1.1-1.3-1.8c-0.3-0.7-0.4-1.5-0.4-2.5
	v-0.1c0-1.9,0.6-3.3,1.9-4.3c1.3-1,3-1.5,5.2-1.5c0.4,0,0.8,0,1.2,0.1c0.4,0,0.8,0.1,1.2,0.2c0.4,0.1,0.8,0.1,1.1,0.2
	c0.3,0.1,0.6,0.2,0.8,0.3V35c0-0.9-0.3-1.5-0.8-2c-0.5-0.5-1.4-0.7-2.6-0.7c-1,0-1.9,0.1-2.7,0.3c-0.8,0.2-1.7,0.4-2.5,0.8l-1.4-5.2
	c1.1-0.4,2.3-0.7,3.5-1c1.3-0.3,2.7-0.4,4.3-0.4c1.9,0,3.5,0.2,4.8,0.6c1.3,0.4,2.3,1,3.1,1.8c0.7,0.7,1.2,1.5,1.5,2.5
	c0.3,0.9,0.4,2.1,0.4,3.4v10.6h-7.8v-1.9c-0.7,0.7-1.4,1.3-2.3,1.7C111.1,46,110,46.2,108.9,46.2z M112,41.7c0.7,0,1.3-0.3,1.7-0.8
	c0.5-0.5,0.7-1.2,0.7-2.1v-0.8c-0.2-0.1-0.5-0.2-0.8-0.2c-0.3-0.1-0.6-0.1-1-0.1c-0.8,0-1.4,0.2-1.8,0.6c-0.4,0.4-0.6,0.9-0.6,1.5
	v0.1c0,0.5,0.2,1,0.5,1.3C111,41.6,111.5,41.7,112,41.7z"/>
<path class="st2" d="M60.5,68c-1.2,0-2.4-0.2-3.4-0.6c-1.1-0.4-2-1-2.8-1.7c-0.8-0.7-1.4-1.6-1.9-2.6c-0.5-1-0.7-2.1-0.7-3.4v0
	c0-1.2,0.2-2.3,0.6-3.3c0.4-1,1-1.9,1.8-2.7c0.8-0.7,1.7-1.3,2.7-1.7c1.1-0.4,2.2-0.6,3.4-0.6c1.4,0,2.7,0.2,3.8,0.6
	c1.1,0.4,2.2,1,3,1.7l-3.1,3.6c-0.5-0.5-1.1-0.9-1.7-1.1c-0.6-0.3-1.2-0.4-1.9-0.4c-0.5,0-1,0.1-1.5,0.3c-0.4,0.2-0.8,0.5-1.1,0.8
	c-0.3,0.3-0.6,0.8-0.7,1.2c-0.2,0.5-0.3,1-0.3,1.6v0c0,0.6,0.1,1.1,0.3,1.6c0.2,0.5,0.5,0.9,0.8,1.3c0.3,0.3,0.7,0.6,1.2,0.8
	c0.5,0.2,1,0.3,1.6,0.3c0.5,0,0.8,0,1.1-0.1c0.3-0.1,0.5-0.2,0.7-0.3v-1.6H60v-3.4h7.8v7.4c-0.9,0.7-2,1.3-3.2,1.7
	C63.4,67.7,62,68,60.5,68z"/>
<path class="st2" d="M104.7,51.6h6c1.6,0,2.9,0.2,4.1,0.6c1.2,0.4,2.1,0.9,2.9,1.6c0.8,0.7,1.4,1.5,1.7,2.5c0.4,1,0.6,2,0.6,3.2v0
	c0,1.2-0.2,2.3-0.6,3.3c-0.4,1-1,1.8-1.8,2.6c-0.8,0.7-1.8,1.3-3,1.7c-1.2,0.4-2.6,0.6-4.2,0.6h-5.8V51.6z M110.8,63.2
	c1.2,0,2.2-0.3,3-0.9c0.7-0.6,1.1-1.5,1.1-2.7v0c0-1.3-0.4-2.2-1.1-2.7c-0.7-0.6-1.7-0.9-3-0.9h-0.9v7.2H110.8z"/>
<path class="st2" d="M129.4,67.9c-1.6,0-3.2-0.2-4.6-0.7c-1.4-0.5-2.6-1.2-3.7-2.1l2.9-3.4c0.9,0.6,1.8,1.1,2.8,1.4
	c1,0.3,1.9,0.4,2.9,0.4c0.5,0,0.8-0.1,1.1-0.2c0.2-0.1,0.3-0.3,0.3-0.5v0c0-0.2-0.2-0.4-0.5-0.5c-0.3-0.1-0.9-0.3-1.8-0.5
	c-0.9-0.2-1.8-0.4-2.6-0.6c-0.8-0.2-1.5-0.6-2.2-0.9c-0.6-0.4-1.1-0.8-1.5-1.4c-0.4-0.6-0.5-1.3-0.5-2.1v0c0-0.8,0.1-1.5,0.4-2.1
	c0.3-0.7,0.7-1.2,1.3-1.7c0.6-0.5,1.3-0.9,2.1-1.1c0.8-0.3,1.8-0.4,2.9-0.4c1.6,0,2.9,0.2,4.1,0.6c1.2,0.4,2.2,0.9,3.2,1.7l-2.6,3.6
	c-0.8-0.5-1.6-0.9-2.4-1.2c-0.8-0.2-1.6-0.4-2.4-0.4c-0.4,0-0.7,0.1-0.9,0.2c-0.2,0.1-0.3,0.3-0.3,0.5v0c0,0.1,0,0.2,0.1,0.3
	c0.1,0.1,0.2,0.2,0.3,0.3c0.2,0.1,0.4,0.2,0.7,0.2c0.3,0.1,0.6,0.1,1.1,0.2c1,0.2,2,0.4,2.8,0.6c0.8,0.3,1.6,0.6,2.2,1
	c0.6,0.4,1.1,0.9,1.4,1.4c0.3,0.6,0.5,1.2,0.5,2v0c0,0.8-0.2,1.6-0.5,2.2c-0.3,0.7-0.8,1.2-1.4,1.7c-0.6,0.5-1.4,0.8-2.2,1.1
	C131.5,67.8,130.5,67.9,129.4,67.9z"/>
<path class="st0" d="M133.5,24.9c-1.2-4-6.9-10.9-7.6-11.5l2.9-2.5l-7.5-2.1l-7.5-2.1l1.7,6.8l1.7,6.8l3.2-2.6
	c1.9,1.9,5,6.6,5.7,8.8c1.6,5.1,1.6,20.5,1.6,20.5h7.8C135.5,47,135.1,30.4,133.5,24.9z"/>
<g>
	<path class="st2" d="M79.4,63.4c0.3,0.6-4,2.3-6-1.3c-1.9-3.5,1.7-6.1,2.1-5.5c0,0-1.3,2.5,0.1,4.6C76.8,63.3,79.4,63.4,79.4,63.4z
		"/>
	<path class="st2" d="M77.3,52.1c-4.6,0-8.4,3.6-8.4,8c0,4.4,3.7,8,8.4,8c4.6,0,8.4-3.6,8.4-8C85.7,55.7,81.9,52.1,77.3,52.1z
		 M77.3,66c-3.5,0-6.3-2.7-6.3-6c0-3.3,2.8-6,6.3-6c3.5,0,6.3,2.7,6.3,6C83.6,63.3,80.8,66,77.3,66z"/>
</g>
<g>
	<path class="st2" d="M97.3,63.4c0.3,0.6-4,2.3-6-1.3c-2-3.5,1.7-6.1,2-5.5c0,0-1.3,2.5,0.1,4.6C94.7,63.3,97.3,63.4,97.3,63.4z"/>
	<path class="st2" d="M95.2,52.1c-4.6,0-8.4,3.6-8.4,8c0,4.4,3.7,8,8.4,8c4.6,0,8.4-3.6,8.4-8C103.6,55.7,99.8,52.1,95.2,52.1z
		 M95.2,66c-3.5,0-6.3-2.7-6.3-6c0-3.3,2.8-6,6.3-6c3.5,0,6.3,2.7,6.3,6C101.5,63.3,98.7,66,95.2,66z"/>
</g>
</svg>
